<?xml version="1.0" encoding="utf-8"?>
<!-- Generator: Adobe Illustrator 19.0.0, SVG Export Plug-In . SVG Version: 6.00 Build 0)  -->
<svg version="1.1" id="Livello_1" xmlns="http://www.w3.org/2000/svg" xmlns:xlink="http://www.w3.org/1999/xlink" x="0px" y="0px"
	 viewBox="0 0 113.4 113.4" style="enable-background:new 0 0 113.4 113.4;" xml:space="preserve">
<style type="text/css">
	.st0{fill:#F5F1ED;}
	.st1{fill:#1D1D1B;}
</style>
<g id="XMLID_1_">
	<g id="XMLID_2_">
		<path id="XMLID_9_" class="st0" d="M67.8,84V73.9c0.3,0,0.6,0,0.8,0c2.5,0,4.9,0,7.4,0c3.9,0,7.1-2,8.3-5.3
			c0.3-0.8,0.4-1.6,0.4-2.5c0-8.4,0-16.8,0-25.2c0-4.2-3.8-7.6-8.6-7.6c-10.9,0-21.7,0-32.6,0c-2.3,0-4.6,0-7,0
			c-4.2,0-7.6,2.5-8.4,6.2c-0.1,0.5-0.2,1-0.2,1.4c0,8.4,0,16.7,0,25.1c0,3.1,1.5,5.4,4.5,6.9c1.2,0.6,2.6,0.9,4.1,0.9
			c5.2,0,10.4,0,15.6,0c0.3,0,0.6,0.1,0.8,0.3c4.7,3.1,9.4,6.3,14.1,9.4C67.3,83.7,67.5,83.8,67.8,84"/>
		<path id="XMLID_70_" class="st1" d="M46.8,65.2c0.7-1.8,1.3-3.6,2.2-5.4c1.1-2.4,3.1-6.1,6.2-9.5c3-3.2,6.2-5.5,9.7-6.7
			c1-0.3,1.6-0.3,2,0.1c0.8,0.8-0.1,2.7-0.7,3.7c-0.4,0.6-0.7,1.2-1.1,1.7l0,0c-0.9,1.2-2,2.3-3.1,3.3c-0.4,0.3-0.7,0.6-1.1,0.9
			l-0.1,0c-0.9-0.3-2-0.4-3.3-0.3c-0.8,0.1-1.6,0.3-2.3,0.7C54.8,54,54,54.5,54.4,55c0.1,0.1,0.2,0.2,0.3,0.2
			c0.9,0.4,2.1,0.3,3.1,0.1c0.1,0,0.2,0,0.3-0.1c0.5-0.1,1-0.3,1.6-0.5c0.1,0,0.3-0.1,0.4-0.1c0.2-0.1,0.4-0.2,0.6-0.2
			c0.1,0,0.1,0,0.2-0.1l0.1,0l0.1,0.1c0.3,0.3,0.4,0.6,0.4,1l0,0.1l-0.1,0c-0.8,0.2-1.5,0.4-2.2,0.7c-0.9,0.3-1.8,0.7-2.7,1.1
			c-0.2,0.1-0.3,0.2-0.5,0.2c0,0-0.1,0-0.1,0c-3.2,1.6-4.2,3-4.4,3.6c-0.3,0.5-0.3,1-0.1,1.4c0.1,0.3,0.5,0.5,1.1,0.6
			c1.7,0.4,4.8-0.2,8-2.3c1.1-0.8,1.9-1.6,2.4-2.5c0.6-1.1,0.6-2.1,0.4-2.8L63,55.1c-0.3-0.6-0.8-1-1.1-1.2l0.2-0.1
			c3.4-1.7,5.9-4.3,6.5-6c0.4-0.9,0.7-3.2-0.5-4.3c-0.5-0.4-1.1-0.6-1.9-0.6c-0.5,0-1.1,0.1-1.7,0.3c-3.7,1-7,2.9-9.9,5.9
			c-4.5,4.5-7.9,9.7-10.7,16.2H46.8z M59.4,54.2c-0.5,0.3-1.1,0.5-1.8,0.6c-0.6,0.1-1.3,0.2-1.8,0c-0.1,0-0.1-0.1-0.2-0.1
			c-0.3-0.3,0.2-0.6,0.4-0.7c0.4-0.2,0.9-0.4,1.3-0.4c0.8-0.1,1.7,0,2.4,0.2l0.4,0.1C60,54,59.7,54.1,59.4,54.2 M61.5,56.2
			c-0.9,3.2-4.8,4.9-6.5,5.5C54.5,61.9,54,62,53.6,62c-0.3,0-0.5-0.1-0.6-0.2c-0.1-0.1-0.3-0.3-0.2-0.6c0.2-0.9,1.9-2.5,4.9-3.9
			c0.5-0.2,1.5-0.6,2.7-1c0.3-0.1,0.6-0.2,0.9-0.3l0.2-0.1L61.5,56.2z"/>
		<path id="XMLID_5_" class="st1" d="M56.4,54L56.4,54C56.4,54,56.4,54,56.4,54z"/>
		<path id="XMLID_4_" class="st1" d="M56.4,54L56.4,54C56.4,54,56.4,54,56.4,54z"/>
		<path id="XMLID_3_" class="st1" d="M56.4,54L56.4,54L56.4,54z"/>
		<path id="XMLID_10_" class="st1" d="M56.4,54L56.4,54L56.4,54z"/>
	</g>
</g>
</svg>
